<svg width="38" height="38" viewBox="0 0 38 38" fill="none" xmlns="http://www.w3.org/2000/svg">
    <g clip-path="url(#clip0_115_6551)">
        <path
            d="M36.5158 17.5157H5.07983L10.2873 12.3335C10.8684 11.7552 10.8706 10.8153 10.2923 10.2343C9.71398 9.65316 8.77407 9.651 8.19301 10.2292L0.436853 17.948C0.436334 17.9484 0.435963 17.949 0.435517 17.9494C-0.144057 18.5277 -0.145912 19.4706 0.435369 20.0508C0.435889 20.0513 0.43626 20.0518 0.436705 20.0522L8.19286 27.771C8.77385 28.3491 9.71375 28.3471 10.2921 27.7659C10.8705 27.1849 10.8682 26.245 10.2872 25.6667L5.07983 20.4845H36.5158C37.3356 20.4845 38.0002 19.8199 38.0002 19.0001C38.0002 18.1803 37.3356 17.5157 36.5158 17.5157Z"
            fill="#333333" />
    </g>
    <defs>
        <clipPath id="clip0_115_6551">
            <rect width="38" height="38" fill="white" />
        </clipPath>
    </defs>
</svg>