<svg width="38" height="38" viewBox="0 0 38 38" fill="none" xmlns="http://www.w3.org/2000/svg">
    <g clip-path="url(#clip0_115_6555)">
        <path
            d="M1.48428 17.5157H32.9202L27.7127 12.3335C27.1317 11.7552 27.1295 10.8153 27.7078 10.2343C28.2861 9.65316 29.226 9.651 29.8071 10.2292L37.5632 17.948C37.5637 17.9484 37.5641 17.949 37.5645 17.9494C38.1441 18.5277 38.146 19.4706 37.5647 20.0508C37.5642 20.0513 37.5638 20.0518 37.5634 20.0522L29.8072 27.771C29.2262 28.3491 28.2863 28.3471 27.7079 27.7659C27.1296 27.1849 27.1318 26.245 27.7129 25.6667L32.9202 20.4845H1.48428C0.664463 20.4845 -9.15527e-05 19.8199 -9.15527e-05 19.0001C-9.15527e-05 18.1803 0.664463 17.5157 1.48428 17.5157Z"
            fill="#333333" />
    </g>
    <defs>
        <clipPath id="clip0_115_6555">
            <rect width="38" height="38" fill="white" transform="matrix(-1 0 0 1 38 0)" />
        </clipPath>
    </defs>
</svg>